<?xml version="1.0" encoding="UTF-8"?><svg id="Layer_1" xmlns="http://www.w3.org/2000/svg" viewBox="0 0 987.87 1014.92"><defs><style>.cls-1{fill:#3d96ce;}</style></defs><path class="cls-1" d="M465.45,977.32c-1.18-.32-2.34-.83-3.53-.92-9.89-.76-19.85-1.02-29.68-2.26-11.72-1.48-23.32-3.87-35-5.7-16.24-2.54-32.05-6.86-47.78-11.52-19.71-5.84-38.8-13.31-57.55-21.7-27.81-12.44-54.04-27.66-78.86-45.24-10.39-7.36-20.17-15.59-30.1-23.58-13.1-10.53-25.38-22-36.9-34.23-10.23-10.86-20.1-22.06-29.36-33.8-10.87-13.79-21.01-28.06-30.38-42.88-11.56-18.28-21.65-37.36-30.47-57.12-7.51-16.81-14.12-33.96-19.59-51.54-4.68-15.03-8.88-30.19-11.79-45.67-1.88-10.01-3.39-20.08-5.08-30.12-1.6-9.45-2.31-18.98-3.14-28.52-1.32-15.23-2.02-30.46-1.72-45.74,.16-7.96,.43-15.93,1.04-23.87,.76-9.87,1.51-19.77,3.03-29.54,1.92-12.32,3.94-24.62,6.52-36.85,4.11-19.47,9.45-38.53,15.99-57.28,8.69-24.91,19.47-48.88,32.26-71.97,7.85-14.17,16.4-27.88,25.69-41.15,8.26-11.8,16.94-23.27,26.23-34.29,10.61-12.6,21.59-24.86,33.58-36.14,12.19-11.48,24.78-22.5,38.06-32.77,12.45-9.63,25.27-18.64,38.52-27.1,17.26-11.02,35.31-20.56,53.92-29.11,18.09-8.32,36.57-15.51,55.54-21.57,16.11-5.15,32.52-9.08,49.01-12.62,9.95-2.13,20.04-3.66,30.13-5.03,8.01-1.08,16.11-1.54,24.18-2.2,8.06-.66,16.12-1.43,24.2-1.78,7.15-.31,14.33-.25,21.49-.09,8.12,.17,16.25,.4,24.34,1.03,8.54,.67,17.05,1.73,25.54,2.82,9.62,1.24,19.28,2.34,28.8,4.18,12.23,2.36,24.41,5.08,36.46,8.2,19.71,5.1,38.95,11.7,57.71,19.64,16.08,6.81,31.82,14.31,47.17,22.68,15.54,8.48,30.54,17.8,44.84,28.17,10.58,7.67,20.82,15.8,31,24,12.3,9.91,23.93,20.62,34.83,32.06,10.99,11.53,21.51,23.47,31.45,35.94,14.77,18.53,28.07,38.05,39.86,58.55,10.93,19,20.7,38.62,28.51,59.14,4.38,11.5,8.69,23.04,12.47,34.75,4.73,14.66,8.67,29.57,11.53,44.73,1.88,10,3.41,20.07,5.08,30.12,1.56,9.45,2.74,18.94,3.06,28.53,.16,4.79,.59,9.58,.98,14.36,.06,.7,.59,1.36,.91,2.03v44c-.32,.34-.88,.66-.91,1.01-.4,5.78-.7,11.57-1.1,17.35-.31,4.45-.51,8.93-1.13,13.34-1.13,8.13-2.42,16.25-3.85,24.34-1.68,9.53-3.21,19.11-5.45,28.51-4.46,18.66-9.83,37.07-16.53,55.07-9.56,25.66-21.13,50.33-34.84,74.06-15.95,27.6-34.58,53.25-55.72,77.02-9.59,10.78-20.16,20.72-30.43,30.88-13.23,13.08-27.8,24.59-42.72,35.67-17.79,13.22-36.46,25.09-55.99,35.52-16.4,8.76-33.28,16.55-50.6,23.39-18.03,7.11-36.41,13.06-55.17,17.87-11.45,2.93-23.05,5.07-34.65,7.31-12.79,2.47-25.67,3.93-38.54,5.52-7.21,.89-14.55,.8-21.83,1.23-.86,.05-1.69,.6-2.53,.91h-41ZM86.46,487.8c-.02,123.58,41.66,225.59,117.43,300.38,77.49,76.49,171.14,116.2,279.98,116.85,110.55,.66,206.17-38.43,284.57-116.47,78.39-78.03,117.92-173.46,117.73-284.01-.19-109.79-39.68-204.56-117.41-282.14-77.21-77.06-171.43-116.31-280.45-116.78-110.37-.48-205.73,38.77-284.01,116.64-78.2,77.78-116.11,173.1-117.82,265.54Z"/><path class="cls-1" d="M502.29,566.38c2.24-7.32,.45-14.49,1.38-21.78-4.36-2.05-8.55-3.92-12.65-5.96-9.76-4.86-19.66-9.46-29.16-14.77-14.44-8.07-28.56-16.71-41.94-26.46-9.76-7.12-19.5-14.3-28.81-21.99-9.21-7.61-18.27-15.49-26.68-23.95-14.75-14.84-28.26-30.79-39.69-48.38-15.69-24.13-27.32-49.99-33.34-78.26-2.07-9.7-3.77-19.43-4.04-29.38-.19-6.79-.93-13.59-.72-20.37,.29-9.57,1.25-19.09,2.65-28.6,1.8-12.24,4.44-24.25,8.06-36.07,.48-1.57,.92-3.15,1.53-5.25,.62,1.1,1.32,1.8,1.42,2.58,1.67,12.64,5.6,24.68,9.77,36.64,4.96,14.21,11.44,27.76,18.39,41.09,8.74,16.76,19.06,32.53,30.39,47.63,8.77,11.68,18.26,22.76,28.12,33.56,10.9,11.94,22.7,22.87,34.72,33.64,20.3,18.19,42.3,34.08,65.14,48.81,11.24,7.25,22.83,14,34.49,20.58,10.5,5.93,21.28,11.39,31.99,16.92,4.69,2.42,9.55,4.51,14.31,6.8,1.31,.63,2.54,1.44,4.01,2.28-32.87,88.58-35.01,177.03-.33,265.45-4,5.42-113.04,93.7-126.73,102.52-3.26-14.77-5.18-29.55-8.29-44.43,3.12-3.18,6.27-6.36,9.37-9.58,9.93-10.31,19.86-20.62,29.77-30.96,6.68-6.97,13.33-13.96,19.97-20.97,.87-.92,1.61-1.98,2.69-3.32-1.63-.89-2.86-1.61-4.13-2.24-21.24-10.5-41.47-22.73-60.93-36.2-13.21-9.14-25.89-19.03-38.15-29.47-12.45-10.59-24.24-21.84-35.31-33.82-15.67-16.95-29.39-35.41-40.8-55.54-8-14.11-14.65-28.8-19.49-44.3-3.63-11.64-6.67-23.41-7.93-35.59-.42-4.09-1.24-8.14-1.7-12.23-.23-2.06-.04-4.16-.04-6.14,4.86,7.9,9.44,15.94,14.6,23.58,7.24,10.72,15.15,20.96,24.11,30.34,5.29,5.53,10.36,11.27,15.82,16.62,14.47,14.21,30.25,26.89,46.76,38.63,17.27,12.28,35.47,23.03,54.28,32.82,17.44,9.08,35.39,16.95,53.79,24.23,0-4.71,.09-9.24-.03-13.77-.12-4.62-.46-9.24-.7-13.93-4.96-2.02-9.81-4.02-14.69-5.98-16.41-6.6-32.25-14.38-47.76-22.89-14.37-7.89-28.22-16.57-41.69-25.89-11.33-7.84-22.22-16.24-32.37-25.54-7.73-7.08-15.36-14.29-22.64-21.81-7.85-8.1-14.8-16.99-21.4-26.15-7.95-11.04-14.97-22.62-20.71-34.94-6.63-14.22-11.44-29.01-14.7-44.4-3.54-16.69-4.26-33.49-3.65-50.41,.18-4.89,1.04-9.76,1.66-15.29,3.69,8.85,7.04,16.92,10.42,24.97,3.85,9.17,8.92,17.7,14.23,26.07,8.9,14.01,18.71,27.36,30.14,39.44,7.66,8.1,15.19,16.37,23.35,23.93,14.48,13.41,30.08,25.48,46.42,36.59,21.38,14.55,43.99,26.92,67.3,38.04,9.79,4.67,19.87,8.75,30.16,13.25Z"/><path class="cls-1" d="M716.05,526.43c-3.32-2.52-5.63-4.34-8-6.05-4.7-3.39-9.54-6.6-15.17-8.24-4.08-1.18-8.25-2.45-12.52-.83-1.52,.58-3.11,1.18-4.38,2.16-12.97,10.04-22.85,22.6-29.37,37.62-3.74,8.61-6.09,17.66-7.37,27.06-1.15,8.49-1.18,16.96-.56,25.36,.72,9.83,2.68,19.54,5.41,29.07,4.51,15.77,10.92,30.73,18.51,45.23,.92,1.75,1.82,3.51,2.88,5.55-26.37,24.19-53.85,47.08-81.38,70.81-1.27-2.43-2.39-4.23-3.19-6.16-6.1-14.62-10.56-29.71-13.58-45.28-2.33-12-3.96-24.05-5.06-36.23-1.49-16.47-.93-32.92-.57-49.37,.18-8.38,1.83-16.72,2.63-25.09,1-10.52,2.77-20.91,5.12-31.19,2.41-10.57,4.75-21.18,7.65-31.62,3.34-12.03,7.27-23.89,11.1-36.33-3.63-5.03-8.74-9.27-14.06-13.2-15.32-11.3-30.96-22.17-46.06-33.74-14.86-11.39-29.36-23.28-43.75-35.26-7.91-6.58-15.46-13.63-22.85-20.8-9.06-8.79-18.15-17.61-26.59-27-13.18-14.67-25.17-30.3-35.69-47.05-11.11-17.7-20.49-36.19-26.91-56.11-3.59-11.12-6.19-22.46-8.03-34.05-2.21-13.9-1.96-27.8-1.6-41.73,.14-5.58,1.23-11.15,1.96-16.71,.08-.59,.61-1.12,1.13-2.02,2.31,5.92,4.45,11.47,6.65,17.01,5.8,14.6,12.58,28.74,20.62,42.23,5.75,9.65,11.61,19.25,17.81,28.62,8.24,12.44,17.3,24.31,27.28,35.41,8,8.9,16.01,17.82,24.53,26.21,14.68,14.45,30.57,27.51,47.37,39.44,19.6,13.91,40.25,26.02,61.97,36.29,12.81,6.06,25.78,11.78,39.24,16.26,9.82,3.27,18.67,8.36,27.15,14.14,11.39,7.76,22.3,16.15,32.12,25.87,6.49,6.42,13.09,12.75,19.23,19.49,8.39,9.19,15.89,19.15,21.59,30.23,3.38,6.57,6.31,13.51,6.09,21.17-.07,2.57-.75,5.12-1.33,8.81Z"/></svg>