<?xml version="1.0" encoding="UTF-8"?><svg id="Layer_1" xmlns="http://www.w3.org/2000/svg" viewBox="0 0 1005.21 1007.12"><defs><style>.cls-1{fill:#ce3d3d;}</style></defs><path class="cls-1" d="M483.58,969.52c-.33-.32-.65-.89-1-.91-5.45-.4-10.92-.63-16.36-1.12-4.77-.43-9.51-1.12-14.26-1.73-5.4-.7-10.83-1.26-16.18-2.21-10.37-1.84-20.7-3.89-31.04-5.89-17.65-3.41-34.79-8.68-51.73-14.56-26.07-9.05-51.12-20.47-75.18-33.97-20.25-11.36-39.51-24.19-57.85-38.47-16.82-13.1-32.92-26.98-47.79-42.24-17.41-17.87-33.39-36.92-47.89-57.27-16.57-23.24-30.96-47.7-43.07-73.51-11.49-24.5-21.11-49.7-27.74-75.97-3.06-12.12-6.21-24.23-8.67-36.47-1.95-9.69-3-19.57-4.28-29.38-1.05-8.03-1.86-16.09-2.77-24.14-.06-.5-.07-1-.09-1.5-.34-14.47-.95-28.93-.9-43.4,.03-8.93,1.08-17.87,1.69-26.8,.34-4.96,.63-9.93,1.14-14.87,.59-5.75,1.22-11.51,2.13-17.22,1.09-6.83,2.55-13.6,3.74-20.41,2.75-15.75,6.72-31.2,11.32-46.48,9.15-30.38,21.36-59.52,36.4-87.46,11.95-22.21,25.76-43.23,41.1-63.23,9.31-12.14,19.27-23.71,29.66-34.95,16.98-18.38,35.58-34.88,55.22-50.33,17.37-13.65,35.62-25.94,54.73-36.93,22.91-13.17,46.86-24.25,71.63-33.49,18.21-6.79,36.85-12.21,55.74-16.72,8.96-2.14,18.06-3.73,27.14-5.31,8.61-1.49,17.27-2.75,25.93-3.89,4.92-.64,9.91-.84,14.86-1.21,8.25-.61,16.49-1.56,24.75-1.69,10.62-.16,21.24,.35,31.87,.57,2,.04,4-.02,6,.12,8.42,.61,16.85,1.13,25.25,1.96,8.71,.86,17.44,1.71,26.07,3.17,16.23,2.74,32.39,5.84,48.28,10.22,19.53,5.38,38.7,11.77,57.4,19.61,24.07,10.09,47.37,21.67,69.53,35.51,17.3,10.8,33.81,22.73,49.58,35.62,15.72,12.86,30.62,26.67,44.51,41.52,25.47,27.25,47.45,57.12,66.01,89.45,17.05,29.7,30.61,60.99,40.84,93.67,5.41,17.27,9.79,34.85,13.09,52.65,1.81,9.72,2.97,19.57,4.26,29.38,1.05,8.03,1.86,16.09,2.77,24.14,.06,.5,.07,1,.09,1.5,.33,14.8,1,29.6,.87,44.4-.1,11.1-.95,22.22-1.97,33.29-.92,10.02-2.3,20.02-3.87,29.96-2.53,15.94-5.84,31.74-10.05,47.32-4.51,16.68-9.81,33.12-16.16,49.2-7.57,19.2-16.34,37.85-26.3,55.95-8.55,15.54-17.84,30.61-28.26,44.94-7.7,10.59-15.86,20.85-24.06,31.07-9.59,11.95-20.07,23.11-31.04,33.8-16.44,16.03-33.93,30.85-52.5,44.36-24.4,17.76-50.28,33.05-77.64,45.82-18.68,8.72-37.8,16.32-57.45,22.54-16.32,5.16-32.88,9.44-49.65,12.8-9.04,1.81-18.21,3.07-27.36,4.28-9.17,1.21-18.39,2.1-27.59,3.03-4.28,.44-8.58,.64-12.87,1.02-.36,.03-.68,.59-1.01,.9h-49Zm425.01-488.22c-1.61-92.58-38.81-187.36-115.88-264.85-77.04-77.46-171.08-117.7-280.51-118.75-223.26-2.15-402.86,177.57-403.44,397.82-.29,110.14,38.58,205.4,116.19,283.59,76.94,77.51,171.1,117.15,280.27,118.19,223.26,2.13,403.07-178.09,403.36-416.01Z"/><path class="cls-1" d="M346.57,527.53c-53.51-43.54-106.7-86.83-160.8-130.86h242.74c26.58-74.61,53.04-148.89,79.93-224.36,5.37,13.18,9.28,25.67,13.85,37.9,4.63,12.37,8.83,24.89,13.23,37.35s8.81,24.9,13.22,37.36c4.35,12.3,8.66,24.6,13.06,36.88,4.46,12.43,9.05,24.82,13.5,37.26,4.44,12.41,8.78,24.86,13.21,37.4h242.94c-27.19,22.62-53.99,44-80.49,65.75-26.58,21.82-53.39,43.36-80.42,65.29-53.85-39.28-107.83-78.66-161.97-118.15-54.01,39.4-107.89,78.71-162.01,118.19Z"/><path class="cls-1" d="M303.28,799.87c8.52-28.06,17.04-56.12,25.53-84.09,59.89-45.73,119.62-91.35,179.76-137.28,59.82,45.68,119.77,91.45,179.78,137.28,8.52,28.07,17.04,56.12,25.55,84.17-.28,.21-.56,.42-.84,.62-22.7-17.08-45.2-34.45-67.78-51.7-22.81-17.43-45.61-34.86-68.43-52.27-22.68-17.31-45.37-34.59-68.29-52.06-68.1,52-136.24,104.03-204.38,156.06-.3-.25-.6-.5-.9-.74Z"/><path class="cls-1" d="M508.58,524.77c-52.59,40.16-104.9,80.1-158.16,120.77,1.03-3.91,1.66-6.72,2.5-9.47,6.35-20.83,12.73-41.65,19.1-62.47,1.01-3.31,2.15-6.6,2.95-9.96,.67-2.78,2.27-4.69,4.45-6.35,20.21-15.34,40.43-30.67,60.6-46.08,19.38-14.8,38.7-29.69,58.04-44.54,3.41-2.62,6.79-5.3,10.48-8.18,5.28,4.11,10.58,8.3,15.94,12.4,16.22,12.38,32.48,24.69,48.7,37.07,21.5,16.4,42.96,32.85,64.46,49.24,2.33,1.78,3.84,3.91,4.7,6.77,7.95,26.38,15.99,52.72,23.98,79.08,.13,.42-.04,.93-.12,2.07-52.78-40.3-105.18-80.31-157.62-120.35Z"/></svg>